<svg xmlns="http://www.w3.org/2000/svg" version="1.1" xmlns:xlink="http://www.w3.org/1999/xlink" xmlns:svgjs="http://svgjs.dev/svgjs" width="1000" height="623" viewBox="0 0 1000 623"><g transform="matrix(1,0,0,1,-0.6060606060606233,0.2522267206477409)"><svg viewBox="0 0 396 247" data-background-color="#ffffff" preserveAspectRatio="xMidYMid meet" height="623" width="1000" xmlns="http://www.w3.org/2000/svg" xmlns:xlink="http://www.w3.org/1999/xlink"><g id="tight-bounds" transform="matrix(1,0,0,1,0.2400000000000091,-0.09999999999999432)"><svg viewBox="0 0 395.52 247.2" height="247.2" width="395.52"><g><svg></svg></g><g><svg viewBox="0 0 395.52 247.2" height="247.2" width="395.52"><g transform="matrix(1,0,0,1,75.54432,82.00009689055196)"><svg viewBox="0 0 244.43135999999998 83.19980621889609" height="83.19980621889609" width="244.43135999999998"><g><svg viewBox="0 0 244.43135999999998 83.19980621889609" height="83.19980621889609" width="244.43135999999998"><g><svg viewBox="0 0 244.43135999999998 83.19980621889609" height="83.19980621889609" width="244.43135999999998"><g><svg viewBox="0 0 244.43135999999998 83.19980621889609" height="83.19980621889609" width="244.43135999999998"><g id="textblocktransform"><svg viewBox="0 0 244.43135999999998 83.19980621889609" height="83.19980621889609" width="244.43135999999998" id="textblock"><g><svg viewBox="0 0 244.43135999999998 83.19980621889609" height="83.19980621889609" width="244.43135999999998"><g transform="matrix(1,0,0,1,0,0)"><svg width="244.43135999999998" viewBox="1.3099999999999996 -34.326922740271996 132.37 45.716922740272" height="83.19980621889609" data-palette-color="#915eff"><g class="wordmark-text-0" data-fill-palette-color="primary" id="text-0"><path d="M22.41 0L6.32 0Q5 0 4.48-1.15L4.48-1.15Q4.31-1.49 4.31-1.9L4.31-1.9 4.31-29.48Q4.31-30.8 5.52-31.21L5.52-31.21Q5.86-31.26 6.44-31.32 7.01-31.38 7.59-30.92 8.16-30.46 8.16-29.48L8.16-29.48 8.16-3.22 22.41-3.22Q23.28-3.22 23.65-2.73 24.02-2.24 24.02-1.64 24.02-1.03 23.62-0.52 23.22 0 22.41 0L22.41 0ZM31.72-18.1L31.72-18.1Q33.96-22.24 39.54-22.24L39.54-22.24Q44.14-22.24 46.55-18.74L46.55-18.74Q48.73-15.52 48.73-10.8L48.73-10.8Q48.73-5.98 46.43-2.93L46.43-2.93Q43.96 0.52 39.48 0.46L39.48 0.46Q35.69 0.46 33.27-1.84L33.27-1.84Q32.41-2.59 31.72-3.62L31.72-3.62 31.72 6.72Q31.72 7.59 31.15 7.99 30.57 8.39 30 8.39L30 8.39Q29.31 8.39 28.73 7.93 28.16 7.47 28.16 6.72L28.16 6.72 28.16-20.17Q28.16-21.03 28.68-21.44 29.19-21.84 30.17-21.84L30.17-21.84Q32.07-21.84 31.72-18.1ZM33.13-17.01Q32.3-15.86 32.01-14.25 31.72-12.64 31.72-10.89 31.72-9.14 32.12-7.61 32.53-6.09 33.33-4.83L33.33-4.83Q35.17-2.18 38.62-2.24L38.62-2.24Q41.95-2.24 43.68-5L43.68-5Q45-7.24 45-10.92L45-10.92Q45-16.72 41.72-18.74L41.72-18.74Q40.51-19.48 38.59-19.51 36.66-19.54 35.31-18.85 33.96-18.16 33.13-17.01ZM57.47-20.11L57.47-18.16Q58.85-22.24 63.5-22.24L63.5-22.24Q64.36-22.24 64.79-21.75 65.22-21.26 65.22-20.72 65.22-20.17 64.79-19.68 64.36-19.2 63.21-19.2 62.06-19.2 60.91-18.74 59.77-18.28 59.02-17.41L59.02-17.41Q57.47-15.52 57.47-12.41L57.47-12.41 57.47-1.61Q57.47-0.8 56.89-0.4 56.32 0 55.86 0 55.4 0 55.11-0.09 54.82-0.17 54.54-0.46L54.54-0.46Q54.02-0.8 54.02-1.61L54.02-1.61 54.02-20.11Q54.02-20.86 54.54-21.35 55.05-21.84 55.83-21.84 56.6-21.84 57.04-21.35 57.47-20.86 57.47-20.11L57.47-20.11ZM88.96-11.55L88.96-11.55Q88.96-10.34 87.58-10.23L87.58-10.23 71.83-10.23Q72.06-4.37 76.43-2.64L76.43-2.64Q77.64-2.24 79.19-2.24L79.19-2.24Q82.41-2.24 85.74-4.6L85.74-4.6Q86.77-5.17 87.46-4.48L87.46-4.48Q87.81-4.14 87.69-3.79L87.69-3.79Q87.69-2.99 87.29-2.64L87.29-2.64Q84.13 0.52 78.96 0.46L78.96 0.46Q74.25 0.46 71.37-2.59L71.37-2.59Q68.15-5.75 68.15-10.92L68.15-10.92Q68.15-15.69 70.8-18.79L70.8-18.79Q73.56-22.24 78.61-22.24L78.61-22.24Q83.67-22.24 86.31-19.2L86.31-19.2Q88.84-16.44 88.96-11.55ZM71.95-12.59L85.57-12.59Q85.39-15.69 83.56-17.7L83.56-17.7Q81.83-19.54 78.61-19.54L78.61-19.54Q75.85-19.54 73.9-17.47L73.9-17.47Q72.12-15.4 71.95-12.59L71.95-12.59ZM113.78-11.55L113.78-11.55Q113.78-10.34 112.4-10.23L112.4-10.23 96.66-10.23Q96.89-4.37 101.25-2.64L101.25-2.64Q102.46-2.24 104.01-2.24L104.01-2.24Q107.23-2.24 110.56-4.6L110.56-4.6Q111.6-5.17 112.29-4.48L112.29-4.48Q112.63-4.14 112.52-3.79L112.52-3.79Q112.52-2.99 112.12-2.64L112.12-2.64Q108.96 0.52 103.78 0.46L103.78 0.46Q99.07 0.46 96.2-2.59L96.2-2.59Q92.98-5.75 92.98-10.92L92.98-10.92Q92.98-15.69 95.62-18.79L95.62-18.79Q98.38-22.24 103.44-22.24L103.44-22.24Q108.5-22.24 111.14-19.2L111.14-19.2Q113.67-16.44 113.78-11.55ZM96.77-12.59L110.39-12.59Q110.22-15.69 108.38-17.7L108.38-17.7Q106.66-19.54 103.44-19.54L103.44-19.54Q100.68-19.54 98.73-17.47L98.73-17.47Q96.94-15.4 96.77-12.59L96.77-12.59ZM130.68-1.26L130.68-1.26Q130.68 0.46 126.6 0.46L126.6 0.46Q123.55 0.46 122.29-1.21L122.29-1.21Q120.91-2.99 120.79-7.07L120.79-7.07 120.79-19.14 118.26-19.14Q117.57-19.14 117.17-19.57 116.77-20 116.77-20.46L116.77-20.46Q116.77-20.92 117.11-21.38 117.46-21.84 118.26-21.84L118.26-21.84 121.02-21.84 121.25-28.05Q121.37-28.74 121.88-29.11 122.4-29.48 122.98-29.48 123.55-29.48 123.95-29.14 124.36-28.79 124.36-28.05L124.36-28.05 124.36-21.84 128.32-21.84Q129.01-21.84 129.38-21.38 129.76-20.92 129.76-20.46L129.76-20.46Q129.76-19.89 129.38-19.51 129.01-19.14 128.32-19.14L128.32-19.14 124.36-19.14 124.36-8.97Q124.36-4.71 124.64-3.82 124.93-2.93 125.56-2.59 126.19-2.24 127.11-2.24L127.11-2.24 129.36-2.41Q129.99-2.41 130.33-2.01 130.68-1.61 130.68-1.26Z" fill="#915eff" data-fill-palette-color="primary"></path></g></svg></g></svg></g></svg></g></svg></g></svg></g></svg></g></svg></g><path d="M176.304 76L176.304 14.694 394.115 14.694 394.115 232.506 176.304 232.506 176.304 171.2 180.423 171.2 180.423 228.386 389.996 228.386 389.996 18.814 180.423 18.814 180.423 76Z" fill="#915eff" stroke="transparent" data-fill-palette-color="primary"></path></svg></g><defs></defs></svg><rect width="395.52" height="247.2" fill="none" stroke="none" visibility="hidden"></rect></g></svg></g></svg>